<?xml version="1.0" encoding="utf-8"?>
<!-- Generator: Adobe Illustrator 24.0.1, SVG Export Plug-In . SVG Version: 6.00 Build 0)  -->
<svg version="1.1" id="Layer_1" xmlns="http://www.w3.org/2000/svg" xmlns:xlink="http://www.w3.org/1999/xlink" x="0px" y="0px"
	 viewBox="0 0 122 32" style="enable-background:new 0 0 122 32;" xml:space="preserve">
<style type="text/css">
	.st0{fill-rule:evenodd;clip-rule:evenodd;fill:#6493FF;}
	.st1{fill-rule:evenodd;clip-rule:evenodd;fill:#3155A7;}
	.st2{fill:#454F8E;stroke:#000000;stroke-width:0.25;stroke-miterlimit:10;}
	.st3{font-family:'MyriadPro-Regular';}
	.st4{font-size:16px;}
</style>
<title>majestic</title>
<desc>Created with Sketch.</desc>
<g id="Page-1">
	<g id="majestic">
		<g id="Group-5">
			<path id="Rectangle" class="st0" d="M8.8,0.6l2,0.4C12.3,1.4,13.4,3,13,4.6L8.4,26.1c-0.3,1.6-1.9,2.7-3.6,2.3l-2-0.4
				c-1.6-0.3-2.7-1.9-2.3-3.6L5.2,2.9C5.5,1.3,7.1,0.3,8.8,0.6z"/>
			<path id="Rectangle-Copy" class="st1" d="M19.7,5.4l2,0.1c1.6,0.1,2.8,1,2.5,2.1l-4.5,18.9c-0.3,1.1-2.1,1.9-3.8,1.8l-2-0.1
				c-1.6-0.1-2.8-1-2.5-2.1l4.8-18.9C16.5,6.1,18.1,5.3,19.7,5.4z"/>
			<path id="Rectangle-Copy-2" class="st0" d="M29.6,6.9l1.9,0.4c1.6,0.4,2.6,1.9,2.3,3.4l-3.9,16.4c-0.4,1.5-2,2.5-3.6,2.1
				l-1.9-0.4c-1.6-0.4-2.6-1.9-2.3-3.4L26,9C26.4,7.5,28,6.5,29.6,6.9z"/>
			<path id="Path-2" class="st0" d="M8.8,0.5L23,4.8c1,0.3,1.6,1.4,1.4,2.4L23,12.4L4.5,6.8l1.1-4.6c0.3-1.3,1.6-2.1,2.9-1.8
				C8.6,0.4,8.7,0.4,8.8,0.5z"/>
			<circle id="Oval" class="st0" cx="36.5" cy="24.5" r="3.5"/>
		</g>
	</g>
</g>
<text transform="matrix(1 0 0 1 37.7979 19.3682)" class="st2 st3 st4">MakerSpace</text>
</svg>
