<?xml version="1.0" encoding="utf-8"?>
<!-- Generator: Adobe Illustrator 24.0.1, SVG Export Plug-In . SVG Version: 6.00 Build 0)  -->
<svg version="1.1" id="Layer_1" xmlns="http://www.w3.org/2000/svg" xmlns:xlink="http://www.w3.org/1999/xlink" x="0px" y="0px"
	 viewBox="0 0 122 32" style="enable-background:new 0 0 122 32;" xml:space="preserve">
<style type="text/css">
	.st0{fill-rule:evenodd;clip-rule:evenodd;fill:#6493FF;}
	.st1{fill-rule:evenodd;clip-rule:evenodd;fill:#3155A7;}
	.st2{fill:#3A4DA1;}
</style>
<title>majestic</title>
<desc>Created with Sketch.</desc>
<g id="Page-1">
	<g id="majestic">
		<g id="Group-5">
			<path id="Rectangle" class="st0" d="M5.4,7.2l1.2,0.3c1,0.2,1.6,1.2,1.4,2.2L5.2,22.8C5,23.8,4,24.4,3,24.2L1.8,24
				c-1-0.2-1.6-1.2-1.4-2.2L3.2,8.6C3.4,7.6,4.4,6.9,5.4,7.2z"/>
			<path id="Rectangle-Copy" class="st1" d="M12.1,10.1l1.2,0.1c1,0.1,1.7,0.6,1.5,1.3L12.1,23c-0.2,0.7-1.3,1.2-2.3,1.1l-1.2-0.1
				c-1-0.1-1.7-0.6-1.5-1.3l3-11.6C10.2,10.5,11.1,10,12.1,10.1z"/>
			<path id="Rectangle-Copy-2" class="st0" d="M18.2,11l1.2,0.3c1,0.2,1.6,1.1,1.4,2.1l-2.4,10.1c-0.2,0.9-1.2,1.5-2.2,1.3L15,24.4
				c-1-0.2-1.6-1.1-1.4-2.1L16,12.3C16.2,11.3,17.2,10.8,18.2,11z"/>
			<path id="Path-2" class="st0" d="M5.5,7.1l8.7,2.7c0.6,0.2,1,0.8,0.8,1.5l-0.8,3.2L2.8,10.9l0.7-2.8c0.2-0.8,1-1.3,1.8-1.1
				C5.3,7,5.4,7,5.5,7.1z"/>
			<circle id="Oval" class="st0" cx="22.4" cy="21.8" r="2.1"/>
		</g>
	</g>
</g>
<g>
	<g>
		<path class="st2" d="M38.2,17.9C38.1,16.1,38,14,38,12.4h-0.1c-0.4,1.5-1,3.1-1.6,4.8l-2.3,6.2h-1.2l-2.1-6.1
			c-0.6-1.8-1.1-3.4-1.5-4.9h0c0,1.6-0.1,3.7-0.2,5.6l-0.3,5.5h-1.6L28,10.8h2.1l2.2,6.2c0.5,1.6,1,3,1.3,4.3h0
			c0.3-1.3,0.8-2.7,1.3-4.3l2.3-6.2h2.1l0.8,12.7h-1.6L38.2,17.9z"/>
		<path class="st2" d="M47.7,23.5l-0.1-1.2h0c-0.5,0.7-1.5,1.4-2.8,1.4c-1.8,0-2.8-1.3-2.8-2.6c0-2.2,2-3.4,5.5-3.4v-0.2
			c0-0.7-0.2-2.1-2.1-2.1c-0.9,0-1.7,0.3-2.4,0.7l-0.4-1.1c0.8-0.5,1.9-0.8,3-0.8c2.8,0,3.5,1.9,3.5,3.7v3.4c0,0.8,0,1.6,0.1,2.2
			H47.7z M47.4,18.8c-1.8,0-3.9,0.3-3.9,2.1c0,1.1,0.7,1.6,1.6,1.6c1.2,0,2-0.8,2.2-1.5c0.1-0.2,0.1-0.4,0.1-0.5V18.8z"/>
		<path class="st2" d="M53.4,18.5L53.4,18.5c0.3-0.3,0.6-0.7,0.8-1l2.7-3.2h2l-3.5,3.8l4,5.4h-2l-3.1-4.4l-0.9,1v3.4h-1.7V10.1h1.7
			V18.5z"/>
		<path class="st2" d="M61.5,19.2c0,2.2,1.5,3.2,3.1,3.2c1.2,0,1.9-0.2,2.5-0.5l0.3,1.2c-0.6,0.3-1.6,0.6-3.1,0.6
			c-2.8,0-4.5-1.9-4.5-4.6c0-2.8,1.6-4.9,4.3-4.9c3,0,3.8,2.6,3.8,4.3c0,0.3,0,0.6-0.1,0.8H61.5z M66.4,18c0-1-0.4-2.7-2.3-2.7
			c-1.7,0-2.4,1.5-2.6,2.7H66.4z"/>
		<path class="st2" d="M70.1,17.2c0-1.1,0-2-0.1-2.8h1.5l0.1,1.8h0.1c0.4-1.2,1.4-2,2.5-2c0.2,0,0.3,0,0.5,0v1.6c-0.2,0-0.3,0-0.6,0
			c-1.2,0-2,0.9-2.2,2.1c0,0.2-0.1,0.5-0.1,0.8v4.9h-1.7V17.2z"/>
		<path class="st2" d="M76.1,21.5c0.7,0.5,1.8,0.8,2.9,0.8c1.7,0,2.7-0.9,2.7-2.2c0-1.2-0.7-1.9-2.4-2.5c-2.1-0.7-3.4-1.8-3.4-3.6
			c0-2,1.6-3.5,4.1-3.5c1.3,0,2.3,0.3,2.8,0.6l-0.5,1.3c-0.4-0.2-1.3-0.6-2.4-0.6c-1.8,0-2.4,1-2.4,1.9c0,1.2,0.8,1.8,2.5,2.4
			c2.2,0.8,3.2,1.9,3.2,3.8c0,2-1.4,3.7-4.5,3.7c-1.2,0-2.6-0.4-3.3-0.8L76.1,21.5z"/>
		<path class="st2" d="M85.6,17.3c0-1.2,0-2.1-0.1-3H87l0.1,1.6h0c0.7-1.1,1.8-1.8,3.2-1.8c2.2,0,3.9,1.9,3.9,4.6
			c0,3.3-2,4.9-4.2,4.9c-1.2,0-2.3-0.5-2.8-1.4h0v5h-1.7V17.3z M87.2,19.8c0,0.2,0,0.5,0.1,0.7c0.3,1.2,1.3,2,2.5,2
			c1.8,0,2.8-1.4,2.8-3.5c0-1.8-1-3.4-2.7-3.4c-1.1,0-2.2,0.8-2.5,2.1c-0.1,0.2-0.1,0.5-0.1,0.7V19.8z"/>
		<path class="st2" d="M101.4,23.5l-0.1-1.2h0c-0.5,0.7-1.5,1.4-2.8,1.4c-1.8,0-2.8-1.3-2.8-2.6c0-2.2,2-3.4,5.5-3.4v-0.2
			c0-0.7-0.2-2.1-2.1-2.1c-0.9,0-1.7,0.3-2.4,0.7l-0.4-1.1c0.8-0.5,1.9-0.8,3-0.8c2.8,0,3.5,1.9,3.5,3.7v3.4c0,0.8,0,1.6,0.1,2.2
			H101.4z M101.1,18.8c-1.8,0-3.9,0.3-3.9,2.1c0,1.1,0.7,1.6,1.6,1.6c1.2,0,2-0.8,2.2-1.5c0.1-0.2,0.1-0.4,0.1-0.5V18.8z"/>
		<path class="st2" d="M112,23.2c-0.4,0.2-1.4,0.5-2.6,0.5c-2.8,0-4.6-1.9-4.6-4.7c0-2.8,1.9-4.9,4.9-4.9c1,0,1.9,0.2,2.3,0.5
			l-0.4,1.3c-0.4-0.2-1-0.4-1.9-0.4c-2.1,0-3.2,1.6-3.2,3.5c0,2.1,1.4,3.4,3.2,3.4c0.9,0,1.6-0.2,2-0.4L112,23.2z"/>
		<path class="st2" d="M114.8,19.2c0,2.2,1.5,3.2,3.1,3.2c1.2,0,1.9-0.2,2.5-0.5l0.3,1.2c-0.6,0.3-1.6,0.6-3.1,0.6
			c-2.8,0-4.5-1.9-4.5-4.6c0-2.8,1.6-4.9,4.3-4.9c3,0,3.8,2.6,3.8,4.3c0,0.3,0,0.6-0.1,0.8H114.8z M119.7,18c0-1-0.4-2.7-2.3-2.7
			c-1.7,0-2.4,1.5-2.6,2.7H119.7z"/>
	</g>
</g>
</svg>
