<?xml version="1.0" encoding="utf-8"?>
<!-- Generator: Adobe Illustrator 24.0.1, SVG Export Plug-In . SVG Version: 6.00 Build 0)  -->
<svg version="1.1" id="Layer_1" xmlns="http://www.w3.org/2000/svg" xmlns:xlink="http://www.w3.org/1999/xlink" x="0px" y="0px"
	 viewBox="0 0 122 32" style="enable-background:new 0 0 122 32;" xml:space="preserve">
<style type="text/css">
	.st0{fill-rule:evenodd;clip-rule:evenodd;fill:#6493FF;}
	.st1{fill-rule:evenodd;clip-rule:evenodd;fill:#3155A7;}
	.st2{fill:#3A4DA1;}
</style>
<title>majestic</title>
<desc>Created with Sketch.</desc>
<g id="Page-1">
	<g id="majestic">
		<g id="Group-5">
			<path id="Rectangle" class="st0" d="M9,4l1.5,0.3c1.2,0.3,2,1.5,1.8,2.7L8.8,23.4c-0.3,1.2-1.5,2-2.7,1.8l-1.5-0.3
				c-1.2-0.3-2-1.5-1.8-2.7L6.3,5.8C6.6,4.5,7.8,3.8,9,4z"/>
			<path id="Rectangle-Copy" class="st1" d="M17.3,7.7l1.5,0.1c1.2,0.1,2.1,0.8,1.9,1.6l-3.4,14.4c-0.2,0.8-1.6,1.5-2.9,1.4L13,25
				c-1.2-0.1-2.1-0.8-1.9-1.6L14.7,9C14.9,8.2,16.1,7.6,17.3,7.7z"/>
			<path id="Rectangle-Copy-2" class="st0" d="M24.9,8.8l1.5,0.3c1.2,0.3,2,1.4,1.7,2.6l-2.9,12.5c-0.3,1.1-1.5,1.9-2.7,1.6
				l-1.5-0.3c-1.2-0.3-2-1.4-1.7-2.6l2.9-12.5C22.4,9.2,23.6,8.5,24.9,8.8z"/>
			<path id="Path-2" class="st0" d="M9.1,3.9l10.8,3.3c0.8,0.2,1.2,1.1,1,1.8l-1,3.9L5.8,8.7l0.8-3.5c0.2-1,1.2-1.6,2.2-1.4
				C8.9,3.9,9,3.9,9.1,3.9z"/>
			<circle id="Oval" class="st0" cx="30.1" cy="22.2" r="2.7"/>
		</g>
	</g>
</g>
<g>
	<g>
		<path class="st2" d="M44.6,17.8c-0.1-1.6-0.2-3.5-0.2-4.9h0c-0.4,1.3-0.9,2.8-1.4,4.3l-2,5.6h-1.1l-1.9-5.5
			c-0.5-1.6-1-3.1-1.3-4.4h0c0,1.4-0.1,3.3-0.2,5.1L36,22.8h-1.4l0.8-11.5h1.9l2,5.5c0.5,1.4,0.9,2.7,1.2,3.9h0
			c0.3-1.2,0.7-2.4,1.2-3.9l2-5.5h1.9l0.7,11.5h-1.5L44.6,17.8z"/>
		<path class="st2" d="M53.1,22.8l-0.1-1h0c-0.5,0.6-1.3,1.2-2.5,1.2c-1.7,0-2.5-1.2-2.5-2.4c0-2,1.8-3.1,4.9-3.1v-0.2
			c0-0.7-0.2-1.9-1.9-1.9c-0.8,0-1.6,0.2-2.1,0.6l-0.3-1c0.7-0.4,1.7-0.7,2.7-0.7c2.5,0,3.1,1.7,3.1,3.4v3.1c0,0.7,0,1.4,0.1,2H53.1
			z M52.9,18.6c-1.6,0-3.5,0.3-3.5,1.8c0,1,0.6,1.4,1.4,1.4c1.1,0,1.8-0.7,2-1.4c0.1-0.2,0.1-0.3,0.1-0.5V18.6z"/>
		<path class="st2" d="M58.2,18.4L58.2,18.4c0.2-0.3,0.5-0.7,0.8-0.9l2.4-2.8h1.8L60,18l3.6,4.8h-1.8l-2.8-4l-0.8,0.9v3.1h-1.5V10.7
			h1.5V18.4z"/>
		<path class="st2" d="M65.5,19c0,2,1.3,2.9,2.8,2.9c1.1,0,1.7-0.2,2.3-0.4l0.3,1.1c-0.5,0.2-1.4,0.5-2.7,0.5c-2.5,0-4-1.7-4-4.1
			c0-2.5,1.5-4.4,3.9-4.4c2.7,0,3.4,2.4,3.4,3.9c0,0.3,0,0.5-0.1,0.7H65.5z M69.9,17.9c0-0.9-0.4-2.4-2.1-2.4
			c-1.5,0-2.2,1.4-2.3,2.4H69.9z"/>
		<path class="st2" d="M73.2,17.1c0-1,0-1.8-0.1-2.6h1.3l0.1,1.6h0.1c0.4-1.1,1.3-1.8,2.3-1.8c0.2,0,0.3,0,0.4,0v1.4
			c-0.2,0-0.3,0-0.5,0c-1.1,0-1.8,0.8-2,1.9c0,0.2-0.1,0.5-0.1,0.7v4.4h-1.5V17.1z"/>
		<path class="st2" d="M78.6,21c0.7,0.4,1.6,0.7,2.6,0.7c1.5,0,2.4-0.8,2.4-2c0-1.1-0.6-1.7-2.2-2.3c-1.9-0.7-3-1.6-3-3.2
			c0-1.8,1.5-3.1,3.7-3.1c1.2,0,2,0.3,2.5,0.6l-0.4,1.2c-0.4-0.2-1.1-0.5-2.2-0.5c-1.6,0-2.2,0.9-2.2,1.7c0,1.1,0.7,1.6,2.3,2.2
			c1.9,0.8,2.9,1.7,2.9,3.4c0,1.8-1.3,3.3-4,3.3c-1.1,0-2.3-0.3-2.9-0.7L78.6,21z"/>
		<path class="st2" d="M87.1,17.3c0-1,0-1.9-0.1-2.7h1.3l0.1,1.4h0c0.6-1,1.6-1.6,2.9-1.6c2,0,3.5,1.7,3.5,4.2c0,3-1.8,4.4-3.7,4.4
			c-1.1,0-2-0.5-2.5-1.3h0v4.5h-1.5V17.3z M88.6,19.5c0,0.2,0,0.4,0.1,0.6c0.3,1,1.2,1.8,2.2,1.8c1.6,0,2.5-1.3,2.5-3.2
			c0-1.6-0.9-3.1-2.4-3.1c-1,0-2,0.7-2.3,1.8c0,0.2-0.1,0.4-0.1,0.6V19.5z"/>
		<path class="st2" d="M101.4,22.8l-0.1-1h0c-0.5,0.6-1.3,1.2-2.5,1.2c-1.7,0-2.5-1.2-2.5-2.4c0-2,1.8-3.1,4.9-3.1v-0.2
			c0-0.7-0.2-1.9-1.9-1.9c-0.8,0-1.6,0.2-2.1,0.6l-0.3-1c0.7-0.4,1.7-0.7,2.7-0.7c2.5,0,3.1,1.7,3.1,3.4v3.1c0,0.7,0,1.4,0.1,2
			H101.4z M101.2,18.6c-1.6,0-3.5,0.3-3.5,1.8c0,1,0.6,1.4,1.4,1.4c1.1,0,1.8-0.7,2-1.4c0.1-0.2,0.1-0.3,0.1-0.5V18.6z"/>
		<path class="st2" d="M110.9,22.5c-0.4,0.2-1.3,0.5-2.4,0.5c-2.5,0-4.1-1.7-4.1-4.2c0-2.5,1.7-4.4,4.4-4.4c0.9,0,1.7,0.2,2.1,0.4
			l-0.3,1.1c-0.4-0.2-0.9-0.4-1.7-0.4c-1.9,0-2.9,1.4-2.9,3.1c0,1.9,1.2,3.1,2.9,3.1c0.8,0,1.4-0.2,1.8-0.4L110.9,22.5z"/>
		<path class="st2" d="M113.5,19c0,2,1.3,2.9,2.8,2.9c1.1,0,1.7-0.2,2.3-0.4l0.3,1.1c-0.5,0.2-1.4,0.5-2.7,0.5c-2.5,0-4-1.7-4-4.1
			c0-2.5,1.5-4.4,3.9-4.4c2.7,0,3.4,2.4,3.4,3.9c0,0.3,0,0.5-0.1,0.7H113.5z M117.8,17.9c0-0.9-0.4-2.4-2.1-2.4
			c-1.5,0-2.2,1.4-2.3,2.4H117.8z"/>
	</g>
</g>
</svg>
