<?xml version="1.0" encoding="utf-8"?>
<!-- Generator: Adobe Illustrator 24.0.1, SVG Export Plug-In . SVG Version: 6.00 Build 0)  -->
<svg version="1.1" id="Layer_1" xmlns="http://www.w3.org/2000/svg" xmlns:xlink="http://www.w3.org/1999/xlink" x="0px" y="0px"
	 viewBox="0 0 122 32" style="enable-background:new 0 0 122 32;" xml:space="preserve">
<style type="text/css">
	.st0{fill-rule:evenodd;clip-rule:evenodd;fill:#6493FF;}
	.st1{fill-rule:evenodd;clip-rule:evenodd;fill:#3155A7;}
	.st2{fill:#3A4DA1;}
</style>
<title>majestic</title>
<desc>Created with Sketch.</desc>
<g id="Page-1">
	<g id="majestic">
		<g id="Group-5">
			<path id="Rectangle" class="st0" d="M8.2,8.5l1,0.2c0.8,0.2,1.4,1,1.2,1.8L8,21.7c-0.2,0.8-1,1.4-1.8,1.2l-1-0.2
				c-0.8-0.2-1.4-1-1.2-1.8L6.3,9.7C6.5,8.8,7.3,8.3,8.2,8.5z"/>
			<path id="Rectangle-Copy" class="st1" d="M13.9,11l1,0.1c0.8,0,1.4,0.5,1.3,1.1l-2.3,9.8c-0.1,0.6-1.1,1-1.9,1l-1-0.1
				c-0.8,0-1.4-0.5-1.3-1.1l2.5-9.8C12.2,11.3,13,10.9,13.9,11z"/>
			<path id="Rectangle-Copy-2" class="st0" d="M19,11.7l1,0.2c0.8,0.2,1.4,1,1.2,1.8l-2,8.5c-0.2,0.8-1,1.3-1.9,1.1l-1-0.2
				c-0.8-0.2-1.4-1-1.2-1.8l2-8.5C17.3,12,18.2,11.5,19,11.7z"/>
			<path id="Path-2" class="st0" d="M8.2,8.4l7.4,2.2c0.5,0.2,0.8,0.7,0.7,1.3l-0.7,2.7L6,11.7l0.6-2.4C6.7,8.6,7.3,8.2,8,8.3
				C8.1,8.4,8.1,8.4,8.2,8.4z"/>
			<circle id="Oval" class="st0" cx="22.6" cy="20.9" r="1.8"/>
		</g>
	</g>
</g>
<g>
	<g>
		<path class="st2" d="M41.3,17.6c-0.1-1.5-0.2-3.3-0.2-4.7h0c-0.4,1.3-0.8,2.6-1.4,4.1l-1.9,5.2h-1.1L35,17.1
			c-0.5-1.5-0.9-2.9-1.2-4.2h0c0,1.3-0.1,3.1-0.2,4.8l-0.3,4.6h-1.3l0.8-10.8h1.8l1.8,5.2c0.4,1.3,0.8,2.5,1.1,3.6h0
			c0.3-1.1,0.7-2.3,1.1-3.6l1.9-5.2h1.8l0.7,10.8h-1.4L41.3,17.6z"/>
		<path class="st2" d="M49.3,22.3l-0.1-1h0c-0.4,0.6-1.3,1.2-2.4,1.2c-1.6,0-2.4-1.1-2.4-2.2c0-1.9,1.7-2.9,4.7-2.9v-0.2
			c0-0.6-0.2-1.8-1.8-1.8c-0.7,0-1.5,0.2-2,0.6L45,15.1c0.6-0.4,1.6-0.7,2.6-0.7c2.4,0,2.9,1.6,2.9,3.2v2.9c0,0.7,0,1.3,0.1,1.9
			H49.3z M49.1,18.3c-1.5,0-3.3,0.2-3.3,1.7c0,0.9,0.6,1.3,1.3,1.3c1,0,1.7-0.6,1.9-1.3c0-0.1,0.1-0.3,0.1-0.4V18.3z"/>
		<path class="st2" d="M54.1,18.1L54.1,18.1c0.2-0.3,0.5-0.6,0.7-0.9l2.3-2.7h1.7l-3,3.2l3.4,4.6h-1.7l-2.7-3.7l-0.7,0.8v2.9h-1.4
			V10.9h1.4V18.1z"/>
		<path class="st2" d="M61,18.7c0,1.9,1.2,2.7,2.6,2.7c1,0,1.6-0.2,2.1-0.4l0.2,1c-0.5,0.2-1.4,0.5-2.6,0.5c-2.4,0-3.8-1.6-3.8-3.9
			c0-2.3,1.4-4.2,3.6-4.2c2.5,0,3.2,2.2,3.2,3.6c0,0.3,0,0.5,0,0.7H61z M65.1,17.7c0-0.9-0.4-2.3-1.9-2.3c-1.4,0-2,1.3-2.2,2.3H65.1
			z"/>
		<path class="st2" d="M68.2,17c0-0.9,0-1.7-0.1-2.4h1.2l0.1,1.5h0c0.4-1,1.2-1.7,2.2-1.7c0.2,0,0.3,0,0.4,0v1.3c-0.1,0-0.3,0-0.5,0
			c-1,0-1.7,0.7-1.9,1.8c0,0.2-0.1,0.4-0.1,0.7v4.1h-1.4V17z"/>
		<path class="st2" d="M73.3,20.6c0.6,0.4,1.5,0.7,2.5,0.7c1.4,0,2.3-0.7,2.3-1.8c0-1-0.6-1.6-2-2.1c-1.8-0.6-2.9-1.6-2.9-3.1
			c0-1.7,1.4-2.9,3.5-2.9c1.1,0,1.9,0.3,2.4,0.5L78.7,13c-0.3-0.2-1.1-0.5-2-0.5c-1.5,0-2,0.9-2,1.6c0,1,0.7,1.5,2.1,2.1
			c1.8,0.7,2.8,1.6,2.8,3.2c0,1.7-1.2,3.1-3.8,3.1c-1,0-2.2-0.3-2.8-0.7L73.3,20.6z"/>
		<path class="st2" d="M81.4,17.1c0-1,0-1.8-0.1-2.5h1.3l0.1,1.3h0c0.6-0.9,1.5-1.5,2.7-1.5c1.9,0,3.3,1.6,3.3,3.9
			c0,2.8-1.7,4.2-3.5,4.2c-1,0-1.9-0.5-2.4-1.2h0v4.2h-1.4V17.1z M82.8,19.1c0,0.2,0,0.4,0.1,0.6c0.3,1,1.1,1.7,2.1,1.7
			c1.5,0,2.4-1.2,2.4-3c0-1.5-0.8-2.9-2.3-2.9c-1,0-1.9,0.7-2.1,1.7c0,0.2-0.1,0.4-0.1,0.6V19.1z"/>
		<path class="st2" d="M94.8,22.3l-0.1-1h0c-0.4,0.6-1.3,1.2-2.4,1.2c-1.6,0-2.4-1.1-2.4-2.2c0-1.9,1.7-2.9,4.7-2.9v-0.2
			c0-0.6-0.2-1.8-1.8-1.8c-0.7,0-1.5,0.2-2,0.6l-0.3-0.9c0.6-0.4,1.6-0.7,2.6-0.7c2.4,0,2.9,1.6,2.9,3.2v2.9c0,0.7,0,1.3,0.1,1.9
			H94.8z M94.5,18.3c-1.5,0-3.3,0.2-3.3,1.7c0,0.9,0.6,1.3,1.3,1.3c1,0,1.7-0.6,1.9-1.3c0-0.1,0.1-0.3,0.1-0.4V18.3z"/>
		<path class="st2" d="M103.7,22c-0.4,0.2-1.2,0.4-2.2,0.4c-2.3,0-3.9-1.6-3.9-4c0-2.4,1.6-4.1,4.2-4.1c0.8,0,1.6,0.2,2,0.4
			l-0.3,1.1c-0.3-0.2-0.9-0.4-1.6-0.4c-1.8,0-2.7,1.3-2.7,2.9c0,1.8,1.2,2.9,2.7,2.9c0.8,0,1.3-0.2,1.7-0.4L103.7,22z"/>
		<path class="st2" d="M106.1,18.7c0,1.9,1.2,2.7,2.6,2.7c1,0,1.6-0.2,2.1-0.4l0.2,1c-0.5,0.2-1.4,0.5-2.6,0.5
			c-2.4,0-3.8-1.6-3.8-3.9c0-2.3,1.4-4.2,3.6-4.2c2.5,0,3.2,2.2,3.2,3.6c0,0.3,0,0.5,0,0.7H106.1z M110.3,17.7
			c0-0.9-0.4-2.3-1.9-2.3c-1.4,0-2,1.3-2.2,2.3H110.3z"/>
	</g>
</g>
</svg>
